HIERARCHY
ROOT root
{
	OFFSET 0.000000 0.000000 0.000000
	CHANNELS 6 Xposition Yposition Zposition Zrotation Yrotation Xrotation
	JOINT lhip
	{
		OFFSET 0.058581 -0.082280 -0.017664
		CHANNELS 3 Zrotation Yrotation Xrotation
		JOINT lknee
		{
			OFFSET 0.043451 -0.386469 0.008037
			CHANNELS 3 Zrotation Yrotation Xrotation
			JOINT lankle
			{
				OFFSET -0.014790 -0.426874 -0.037428
				CHANNELS 3 Zrotation Yrotation Xrotation
				JOINT ltoe
				{
					OFFSET 0.041054 -0.060286 0.122042
					CHANNELS 3 Zrotation Yrotation Xrotation
					End Site
					{
						OFFSET 0.000000 0.000000 0.000000
					}
				}
			}
		}
	}
	JOINT rhip
	{
		OFFSET -0.060310 -0.090513 -0.013543
		CHANNELS 3 Zrotation Yrotation Xrotation
		JOINT rknee
		{
			OFFSET -0.043257 -0.383688 -0.004843
			CHANNELS 3 Zrotation Yrotation Xrotation
			JOINT rankle
			{
				OFFSET 0.019056 -0.420046 -0.034562
				CHANNELS 3 Zrotation Yrotation Xrotation
				JOINT rtoe
				{
					OFFSET -0.034840 -0.062106 0.130323
					CHANNELS 3 Zrotation Yrotation Xrotation
					End Site
					{
						OFFSET 0.000000 0.000000 0.000000
					}
				}
			}
		}
	}
	JOINT lowerback
	{
		OFFSET 0.004439 0.124404 -0.038385
		CHANNELS 3 Zrotation Yrotation Xrotation
		JOINT upperback
		{
			OFFSET 0.004488 0.137956 0.026820
			CHANNELS 3 Zrotation Yrotation Xrotation
			JOINT chest
			{
				OFFSET -0.002265 0.056032 0.002855
				CHANNELS 3 Zrotation Yrotation Xrotation
				JOINT lowerneck
				{
					OFFSET -0.013390 0.211636 -0.033468
					CHANNELS 3 Zrotation Yrotation Xrotation
					JOINT upperneck
					{
						OFFSET 0.010113 0.088937 0.050410
						CHANNELS 3 Zrotation Yrotation Xrotation
						End Site
						{
							OFFSET 0.000000 0.000000 0.000000
						}
					}
				}
				JOINT lclavicle
				{
					OFFSET 0.071702 0.114000 -0.018898
					CHANNELS 3 Zrotation Yrotation Xrotation
					JOINT lshoulder
					{
						OFFSET 0.122921 0.045205 -0.019046
						CHANNELS 3 Zrotation Yrotation Xrotation
						JOINT lelbow
						{
							OFFSET 0.255332 -0.015649 -0.022946
							CHANNELS 3 Zrotation Yrotation Xrotation
							JOINT lwrist
							{
								OFFSET 0.265709 0.012698 -0.007375
								CHANNELS 3 Zrotation Yrotation Xrotation
								End Site
								{
									OFFSET 0.000000 0.000000 0.000000
								}
							}
						}
					}
				}
				JOINT rclavicle
				{
					OFFSET -0.082954 0.112472 -0.023707
					CHANNELS 3 Zrotation Yrotation Xrotation
					JOINT rshoulder
					{
						OFFSET -0.113228 0.046853 -0.008472
						CHANNELS 3 Zrotation Yrotation Xrotation
						JOINT relbow
						{
							OFFSET -0.260127 -0.014369 -0.031269
							CHANNELS 3 Zrotation Yrotation Xrotation
							JOINT rwrist
							{
								OFFSET -0.269108 0.006794 -0.006027
								CHANNELS 3 Zrotation Yrotation Xrotation
								End Site
								{
									OFFSET 0.000000 0.000000 0.000000
								}
							}
						}
					}
				}
			}
		}
	}
}
MOTION
Frames: 6
Frame Time: 0.033333
1.152177 0.185654 1.124912 -86.780313 1.875821 87.715273 -0.202216 -0.466448 5.092726 -2.787612 -15.083523 1.884807 7.534675 10.045233 -16.708209 0.000000 -0.000000 0.000000 3.398242 -2.023307 1.708078 5.103486 2.682435 6.248669 0.970879 -5.333541 -11.647508 0.000000 -0.000000 0.000000 -1.755102 1.655700 6.088615 2.315867 -2.737582 2.757116 1.341076 -2.334829 5.392536 6.136619 -0.897750 13.578174 2.600785 -3.138945 16.307136 -25.498262 4.299665 5.708691 -61.027489 -6.780617 7.301468 10.435027 -11.191725 5.652039 -4.035655 1.044316 -5.204285 23.790493 -2.582705 4.275705 60.188958 2.060616 11.415673 -11.811832 11.476181 1.120166 7.873203 -2.601963 -5.013300 
1.150757 0.185654 1.124993 -86.448436 1.962427 87.376885 -0.049687 -0.298510 5.657851 -2.732829 -15.362953 1.642475 7.180366 9.814651 -16.743349 0.000000 -0.000000 0.000000 3.524407 -2.621407 2.334917 4.982584 3.025388 5.956264 1.077622 -5.347488 -11.691876 0.000000 -0.000000 0.000000 -1.739702 1.482637 6.183602 2.400301 -2.685650 3.038743 1.300840 -2.204525 5.610530 6.299797 -0.935877 13.334552 3.198095 -3.516326 15.748200 -25.580169 5.630326 5.585903 -60.472037 -6.240042 7.010499 9.961719 -13.482858 4.968892 -3.956928 0.442800 -6.222513 23.879395 -3.524906 3.848189 60.214793 1.578014 11.011878 -11.587388 11.817793 0.527007 7.883146 -2.235126 -5.407015 
1.150554 0.185320 1.125227 -86.422831 2.009408 87.298974 -0.039074 -0.370932 5.858065 -2.651963 -15.486397 1.493648 7.127073 9.862106 -16.767542 0.000000 -0.000000 0.000000 3.600754 -2.679313 2.302222 4.948698 3.229419 6.201756 1.143411 -5.507714 -11.788127 0.000000 -0.000000 0.000000 -1.720966 1.420497 6.102516 2.406812 -2.539486 3.070027 1.290978 -2.166969 5.894579 6.414132 -0.509007 13.313593 2.947070 -3.095584 15.791404 -25.475581 6.797589 5.480492 -60.583347 -5.942900 6.937904 10.079646 -15.760439 4.381756 -3.353966 -0.093977 -7.344024 23.870223 -4.160354 3.575111 60.426264 1.414887 11.110085 -11.650973 12.121484 0.255290 7.679784 -2.142304 -5.736327 
1.151250 0.185031 1.125445 -86.658347 2.003262 87.411010 -0.076364 -0.516209 5.712483 -2.630965 -15.221845 1.468008 7.150932 9.865533 -16.813084 0.000000 -0.000000 0.000000 3.506651 -2.752428 2.501185 4.916275 2.804374 5.594016 1.448976 -4.831585 -11.665588 0.000000 -0.000000 0.000000 -1.727016 1.564947 6.012670 2.390286 -2.375685 2.846460 1.353541 -1.996676 5.935312 6.465992 -0.504810 13.288820 2.994216 -3.078883 15.965967 -25.310897 7.579168 5.466977 -61.181317 -5.923651 6.936209 10.513076 -17.365519 3.551823 -3.114312 -0.913902 -8.512509 23.919710 -4.569271 3.566511 60.616364 1.495608 10.950115 -12.009084 11.980199 -0.222261 7.705919 -2.077535 -6.083441 
1.151293 0.184787 1.125502 -86.706774 2.017664 87.411430 -0.059367 -0.553389 5.694246 -2.645428 -15.160340 1.481227 7.076870 9.803664 -16.820308 0.000000 -0.000000 0.000000 3.492696 -2.753298 2.543044 4.917773 2.622753 5.586474 1.450938 -4.615996 -11.692085 0.000000 -0.000000 0.000000 -1.729442 1.605571 5.976547 2.411733 -2.286262 2.765029 1.399892 -1.918269 5.794764 6.329896 -0.689101 13.427946 2.930514 -3.121044 15.972857 -25.286110 7.731606 5.451222 -61.544365 -6.034241 6.966118 10.738515 -17.996535 3.171237 -2.880724 -1.436051 -8.522012 23.751637 -4.768260 3.643757 60.804566 1.573918 10.664799 -12.155314 11.875729 -0.665266 7.740063 -1.926064 -6.475755 
1.151275 0.184349 1.125742 -86.905091 2.020841 87.439945 -0.126820 -0.539683 5.756372 -2.539871 -15.062239 1.349360 6.982271 9.820598 -16.811421 0.000000 -0.000000 0.000000 3.471663 -2.673421 2.580091 4.890705 2.639346 5.536975 1.577746 -4.536833 -11.752906 0.000000 -0.000000 0.000000 -1.732299 1.778177 5.897593 2.418163 -2.062043 2.687393 1.479099 -1.925804 5.823205 6.339875 -0.530974 12.780374 2.957509 -3.022720 15.537933 -25.369274 7.652903 5.090846 -62.118288 -6.168453 7.148525 11.186740 -18.370003 2.771398 -2.695139 -1.652945 -8.940173 23.806160 -4.848842 3.506617 60.672047 1.771859 10.614429 -12.023475 12.092119 -1.191281 7.679217 -1.841266 -6.837536 
